<svg xmlns="http://www.w3.org/2000/svg" width="64" height="64" viewBox="0 0 64 64" role="img" aria-label="Microsoft Edge">
  <defs>
    <radialGradient id="bg" cx="35%" cy="30%" r="75%">
      <stop offset="0%" stop-color="#99f6e4" />
      <stop offset="52%" stop-color="#22c55e" />
      <stop offset="100%" stop-color="#2563eb" />
    </radialGradient>
    <radialGradient id="swirl" cx="35%" cy="35%" r="70%">
      <stop offset="0%" stop-color="#e0f2fe" stop-opacity="0.95" />
      <stop offset="45%" stop-color="#38bdf8" stop-opacity="0.95" />
      <stop offset="100%" stop-color="#1d4ed8" stop-opacity="0.92" />
    </radialGradient>
    <linearGradient id="highlight" x1="0" y1="0" x2="1" y2="1">
      <stop offset="0%" stop-color="#ffffff" stop-opacity="0.9" />
      <stop offset="60%" stop-color="#ffffff" stop-opacity="0.1" />
      <stop offset="100%" stop-color="#ffffff" stop-opacity="0" />
    </linearGradient>
  </defs>

  <!-- background disc -->
  <circle cx="32" cy="32" r="30" fill="url(#bg)" />
  <circle cx="32" cy="32" r="30" fill="none" stroke="rgba(17,24,39,0.12)" stroke-width="2" />

  <!-- abstract "e" swirl (stylized, not a literal logo) -->
  <path
    d="M50.5 37.5c0 10.2-8.3 18.5-18.5 18.5-8.8 0-16.2-6.1-18.1-14.3 3.4 3.1 8 5 13 5 9.4 0 17-6.9 17-15.5 0-3.4-1.2-6.5-3.3-8.9 6.2 3.2 9.9 8.5 9.9 15.2Z"
    fill="url(#swirl)"
  />
  <path
    d="M13.7 41.7c-0.6-1.8-0.9-3.6-0.9-5.6 0-10.6 8.6-19.2 19.2-19.2 6.8 0 12.8 3.5 16.2 8.8-3.1-2.4-7.2-3.8-11.8-3.8-10.4 0-18.9 7.1-18.9 15.7 0 1.7 0.3 3.1 0.9 4.1 0.4 0.7 0.5 1.5 0.1 2.2-0.5 0.9-1.7 1.2-2.6 0.7-0.9-0.5-1.7-1.5-2.2-2.9Z"
    fill="rgba(255,255,255,0.22)"
  />

  <!-- subtle highlight -->
  <path
    d="M18 20c4-4.6 9.6-7.4 15.8-7.4 7.6 0 14.3 4.2 17.8 10.4 0.7 1.2-0.4 2.6-1.8 2.3-4.7-0.9-9.5-0.3-13.7 1.6-7.3 3.2-12.4 9.6-13.6 17.1-0.2 1.3-1.7 1.8-2.6 0.9-3.6-3.7-5.9-8.8-5.9-14.4 0-3.9 1.1-7.5 3.2-10.5Z"
    fill="url(#highlight)"
    opacity="0.45"
  />
</svg>

